<svg width="35" height="36" viewBox="0 0 35 36" fill="none" xmlns="http://www.w3.org/2000/svg">
<rect y="0.73587" width="34.5283" height="34.5283" rx="5.39504" fill="white"/>
<path d="M24.3855 11.5747H10.1432C9.30872 11.5747 8.63226 12.2512 8.63226 13.0856V25.6183C8.63226 26.4527 9.30872 27.1292 10.1432 27.1292H24.3855C25.2199 27.1292 25.8964 26.4527 25.8964 25.6183V13.0856C25.8964 12.2512 25.2199 11.5747 24.3855 11.5747Z" stroke="#00AA6C" stroke-width="1.07901" stroke-miterlimit="10"/>
<path d="M12.9425 8.871V14.3341" stroke="#00AA6C" stroke-width="1.07901" stroke-miterlimit="10"/>
<path d="M21.5862 8.871V14.3341" stroke="#00AA6C" stroke-width="1.07901" stroke-miterlimit="10"/>
<path d="M8.91867 16.4494H25.7613" stroke="#00AA6C" stroke-width="1.07901" stroke-miterlimit="10"/>
<path d="M12.7355 18.6359H12.1311C11.793 18.6359 11.5188 18.9101 11.5188 19.2482V19.8526C11.5188 20.1908 11.793 20.4649 12.1311 20.4649H12.7355C13.0737 20.4649 13.3478 20.1908 13.3478 19.8526V19.2482C13.3478 18.9101 13.0737 18.6359 12.7355 18.6359Z" fill="#00AA6C"/>
<path d="M17.5705 18.6359H16.9662C16.628 18.6359 16.3539 18.9101 16.3539 19.2482V19.8526C16.3539 20.1908 16.628 20.4649 16.9662 20.4649H17.5705C17.9087 20.4649 18.1828 20.1908 18.1828 19.8526V19.2482C18.1828 18.9101 17.9087 18.6359 17.5705 18.6359Z" fill="#00AA6C"/>
<path d="M22.3976 18.6359H21.7932C21.4551 18.6359 21.1809 18.9101 21.1809 19.2482V19.8526C21.1809 20.1908 21.4551 20.4649 21.7932 20.4649H22.3976C22.7358 20.4649 23.0099 20.1908 23.0099 19.8526V19.2482C23.0099 18.9101 22.7358 18.6359 22.3976 18.6359Z" fill="#00AA6C"/>
<path d="M12.7355 22.7234H12.1311C11.793 22.7234 11.5188 22.9975 11.5188 23.3357V23.94C11.5188 24.2782 11.793 24.5524 12.1311 24.5524H12.7355C13.0737 24.5524 13.3478 24.2782 13.3478 23.94V23.3357C13.3478 22.9975 13.0737 22.7234 12.7355 22.7234Z" fill="#00AA6C"/>
<path d="M17.5705 22.7234H16.9662C16.628 22.7234 16.3539 22.9975 16.3539 23.3357V23.94C16.3539 24.2782 16.628 24.5524 16.9662 24.5524H17.5705C17.9087 24.5524 18.1828 24.2782 18.1828 23.94V23.3357C18.1828 22.9975 17.9087 22.7234 17.5705 22.7234Z" fill="#00AA6C"/>
<path d="M22.3976 22.7234H21.7932C21.4551 22.7234 21.1809 22.9975 21.1809 23.3357V23.94C21.1809 24.2782 21.4551 24.5524 21.7932 24.5524H22.3976C22.7358 24.5524 23.0099 24.2782 23.0099 23.94V23.3357C23.0099 22.9975 22.7358 22.7234 22.3976 22.7234Z" fill="#00AA6C"/>
</svg>
