<svg width="35" height="36" viewBox="0 0 35 36" fill="none" xmlns="http://www.w3.org/2000/svg">
<rect y="0.73584" width="34.5283" height="34.5283" rx="5.39504" fill="white"/>
<g clip-path="url(#clip0_1_109)">
<path d="M10.83 12.68C10.48 12.4 10.17 12.05 9.94001 11.64C9.00001 9.97001 9.61001 7.86001 11.28 6.94001C12.95 6.02001 15.05 6.61001 15.98 8.28001C16.67 9.52001 16.52 10.99 15.71 12.05" stroke="#00AA6C" stroke-miterlimit="10"/>
<path d="M15.67 13.03C16.3327 13.03 16.87 12.4927 16.87 11.83C16.87 11.1673 16.3327 10.63 15.67 10.63C15.0073 10.63 14.47 11.1673 14.47 11.83C14.47 12.4927 15.0073 13.03 15.67 13.03Z" fill="#00AA6C"/>
<path d="M21.99 11.15C20.42 8.32 16.85 7.3 14.02 8.87C11.19 10.44 10.17 14.01 11.74 16.84C13 19.11 15.55 20.21 17.97 19.75L22.64 28.16L25.7 29.89L25.83 26.38L25 24.88L24.06 25.4L23.08 23.63L24.02 23.11L23.25 21.73L22.31 22.25L21.31 20.46L22.25 19.94L21.16 17.98C22.84 16.17 23.25 13.42 21.98 11.15H21.99Z" stroke="#00AA6C" stroke-miterlimit="10"/>
</g>
<defs>
<clipPath id="clip0_1_109">
<rect width="17.35" height="24.73" fill="white" transform="translate(9 6)"/>
</clipPath>
</defs>
</svg>
