<svg width="35" height="36" viewBox="0 0 35 36" fill="none" xmlns="http://www.w3.org/2000/svg">
<rect y="0.73584" width="34.5283" height="34.5283" rx="5.39504" fill="white"/>
<path d="M13.21 7.5H8.77C7.51631 7.5 6.5 8.51631 6.5 9.77C6.5 11.0237 7.51631 12.04 8.77 12.04H13.21C14.4637 12.04 15.48 11.0237 15.48 9.77C15.48 8.51631 14.4637 7.5 13.21 7.5Z" stroke="#00AA6C" stroke-miterlimit="10"/>
<path d="M11.9499 24.46H9.87988V12.04" stroke="#00AA6C" stroke-miterlimit="10"/>
<path d="M28.4502 24.46H16.9502" stroke="#00AA6C" stroke-miterlimit="10"/>
<path d="M14.0898 27.62C15.5147 27.62 16.6698 26.4649 16.6698 25.04C16.6698 23.6151 15.5147 22.46 14.0898 22.46C12.6649 22.46 11.5098 23.6151 11.5098 25.04C11.5098 26.4649 12.6649 27.62 14.0898 27.62Z" stroke="#00AA6C" stroke-miterlimit="10"/>
<path d="M21.2799 27.3599C21.8819 27.3599 22.3699 26.8719 22.3699 26.2699C22.3699 25.6679 21.8819 25.1799 21.2799 25.1799C20.678 25.1799 20.1899 25.6679 20.1899 26.2699C20.1899 26.8719 20.678 27.3599 21.2799 27.3599Z" stroke="#00AA6C" stroke-miterlimit="10"/>
<path d="M25.6598 27.3599C26.2618 27.3599 26.7498 26.8719 26.7498 26.2699C26.7498 25.6679 26.2618 25.1799 25.6598 25.1799C25.0578 25.1799 24.5698 25.6679 24.5698 26.2699C24.5698 26.8719 25.0578 27.3599 25.6598 27.3599Z" stroke="#00AA6C" stroke-miterlimit="10"/>
<path d="M12.8701 19.0601H15.3201C16.1501 19.0601 16.9401 19.3901 17.5301 19.9701C18.1201 20.5601 18.4401 21.3501 18.4401 22.1801V24.3801" stroke="#00AA6C" stroke-miterlimit="10"/>
<path d="M13.3701 19.0601V22.5501" stroke="#00AA6C" stroke-miterlimit="10"/>
<path d="M26.9199 17.6399H20.1899V24.3699H26.9199V17.6399Z" stroke="#00AA6C" stroke-miterlimit="10"/>
<path d="M23.5098 17.5601V21.4701" stroke="#00AA6C" stroke-miterlimit="10"/>
<path d="M26.9199 10.7H20.1899V17.43H26.9199V10.7Z" stroke="#00AA6C" stroke-miterlimit="10"/>
<path d="M23.5098 10.6101V14.5201" stroke="#00AA6C" stroke-miterlimit="10"/>
</svg>